<svg xmlns="http://www.w3.org/2000/svg" viewBox="0 0 86.88 211.17"><g id="ea6e8818-aea2-4f9b-8558-8e5f893bb5c2" data-name="Layer 2"><g id="e49ef2a8-e593-44d4-afcd-2f9a29f79578" data-name="Layer 1"><path d="M72.23,90.64a17.23,17.23,0,0,1-2.89-2,2.62,2.62,0,0,1-.43-1.92,124.26,124.26,0,0,1,3.88-15.53s.55-.94,1.26-.88c0,0,1.17-3.66,3.8-4.38,0,0,1.08-1.36.07-6.14,0,0,.31-7.37,1.53-10.18,0,0,1.42.33,1.55,3.2A13.66,13.66,0,0,1,82.81,59c-.08,3,.43,2.43-.44,8.53a10.31,10.31,0,0,1,1.51,2.22c.8,1.51,3.51,14,2.92,14.94,0,0-.67.52-.72.9s-1,4-1.45,4c0,0,0,.14-.67.38a10.88,10.88,0,0,1-1.86,2.54.86.86,0,0,0-.8.41,7,7,0,0,0-.11,2s-.19,15-1.34,17.41S77.91,126,77.91,126a13.39,13.39,0,0,1,.32,3.39c-.15,1.34,0,12.32-1.63,15.65,0,0-.23-.25-.29.51,0,0,.35,2.67-1.13,13.34a1.56,1.56,0,0,0-.43,1.67c.41.9,1.77,7,1.77,7s-5.23-2.42-5.15-3,.43-6,.43-6,.24.33.52-.2,1.08-11.83,1-11.95.62.53.67-8.78c0,0-5.51-4.94-7.13-9.56,0,0-.74-1.69-2.42.26,0,0-.57.23-.84-.89s-1.76,5.76-1.76,5.76-.24,1.74-.68,1.29-1.95-.43-.74-9.18,2.71-13.86,3.86-14.54.91,3.56.91,3.56A9.86,9.86,0,0,0,67,117l-.2,1.67s5.65,6.4,5.61,7.21.32-3.74.32-3.74-2.66-14.09-2-17-.31-5.94,1.12-9.78S72.23,90.64,72.23,90.64Z" fill="#374e9b"/><path d="M50,90.66s-3.26-1.88-3.48-2.37A3.17,3.17,0,0,1,46,86c.31-1,.38-4.21,4.66-18.69,0,0,.67-1.12,1.52-1.06,0,0,1.41-4.4,4.58-5.27,0,0,1.3-1.64.08-7.39,0,0,.37-8.87,1.84-12.25,0,0,1.71.39,1.86,3.85,0,0,2.28,3.85,2.18,7.42s.53,2.92-.53,10.26A12.49,12.49,0,0,1,64,65.52c1,1.81,4.21,16.84,3.51,18,0,0-.81.62-.87,1.08s-1.24,4.76-1.74,4.83c0,0-.07.18-.82.47a13.08,13.08,0,0,1-2.22,3.05,1.05,1.05,0,0,0-1,.5,8.34,8.34,0,0,0-.12,2.44s-.24,18.06-1.62,21-2.34,16.34-2.34,16.34a16,16,0,0,1,.39,4.08c-.17,1.61,0,14.83-2,18.84,0,0-.28-.3-.35.61,0,0,.43,3.21-1.36,16.06a1.88,1.88,0,0,0-.52,2c.49,1.08,2.13,8.38,2.13,8.38s-6.29-2.92-6.2-3.58.52-7.25.52-7.25.29.4.63-.24,1.3-14.24,1.23-14.38.76.64.81-10.57c0,0-6.62-5.95-8.57-11.51,0,0-.89-2-2.92.32,0,0-.69.27-1-1.08s-2.12,6.94-2.12,6.94-.28,2.1-.82,1.56-2.34-.52-.88-11.06,3.25-16.68,4.63-17.49,1.11,4.28,1.11,4.28a11.54,11.54,0,0,0,2.15,3.24l-.24,2s6.8,7.7,6.75,8.68.38-4.51.38-4.51-3.19-17-2.42-20.52-.37-7.15,1.36-11.77S50,90.66,50,90.66Z" fill="#7dd5d8"/><path d="M21.92,73.47s-4.85-2.8-5.16-3.54-1.24-2-.78-3.44.58-6.27,7-27.83c0,0,1-1.67,2.25-1.57,0,0,2.1-6.56,6.83-7.85,0,0,1.93-2.45.11-11,0,0,.55-13.2,2.74-18.23,0,0,2.55.58,2.78,5.74,0,0,3.39,5.72,3.25,11s.77,4.34-.8,15.27a17.92,17.92,0,0,1,2.72,4C44.24,38.73,49.09,61.12,48,62.8c0,0-1.2.93-1.29,1.61s-1.85,7.09-2.6,7.2c0,0-.1.27-1.21.69a19.62,19.62,0,0,1-3.32,4.55,1.55,1.55,0,0,0-1.45.74A12.74,12.74,0,0,0,38,81.23s-.35,26.88-2.41,31.21-3.48,24.33-3.48,24.33a23.4,23.4,0,0,1,.58,6.07c-.26,2.4,0,22.08-2.92,28,0,0-.42-.44-.52.91,0,0,.64,4.78-2,23.92a2.78,2.78,0,0,0-.78,3c.74,1.62,3.17,12.48,3.17,12.48s-9.36-4.35-9.22-5.32.77-10.8.77-10.8.43.59.93-.35,1.94-21.21,1.84-21.42,1.12,1,1.21-15.73c0,0-9.87-8.85-12.78-17.14,0,0-1.32-3-4.33.49,0,0-1,.4-1.52-1.61s-3.15,10.32-3.15,10.32-.42,3.13-1.22,2.32-3.48-.77-1.31-16.46,4.85-24.82,6.9-26,1.65,6.38,1.65,6.38a17.57,17.57,0,0,0,3.2,4.83l-.36,3s10.12,11.47,10,12.92.57-6.71.57-6.71-4.76-25.25-3.6-30.55-.56-10.65,2-17.52S21.92,73.47,21.92,73.47Z" fill="#f4cb58"/></g></g></svg>